PathFileType	4	(X/Y/Z)	Walk1.trc
DataRate	CameraRate	NumFrames	NumMarkers	Units	OrigDataRate	OrigDataStartFrame	OrigNumFrames
200.000000	200.000000	7	59	mm	200.000000	516	554
Frame#	Times		LBHD		C7		T10		RBack		LPSI		RPSI		LTB1		RCAR		LMT5		LLFC		LFHD		RWRR		LTH4		LUA1		RBHD		RElbowM		LElbowM		RUA1		RFA1		CLAV		RTH3		RACR1		LACR1		RWRU		RTH2		LWRU		LCAR		RFHD		RTB1		LFA1		RElbow		RTB2		RCAL		RTH4		RTB4		RToe		RTB3		RMT1		RLFC		RTH1		RMT5		LElbow		LTB4		RLMAL		STRN		LASI		LTB3		LWRR		LTH3		RASI		LLMAL		LTH1		LMT1		RMMAL		LCAL		LTH2		LTB2		LMMAL		LToe
			X1	Y1	Z1	X2	Y2	Z2	X3	Y3	Z3	X4	Y4	Z4	X5	Y5	Z5	X6	Y6	Z6	X7	Y7	Z7	X8	Y8	Z8	X9	Y9	Z9	X10	Y10	Z10	X11	Y11	Z11	X12	Y12	Z12	X13	Y13	Z13	X14	Y14	Z14	X15	Y15	Z15	X16	Y16	Z16	X17	Y17	Z17	X18	Y18	Z18	X19	Y19	Z19	X20	Y20	Z20	X21	Y21	Z21	X22	Y22	Z22	X23	Y23	Z23	X24	Y24	Z24	X25	Y25	Z25	X26	Y26	Z26	X27	Y27	Z27	X28	Y28	Z28	X29	Y29	Z29	X30	Y30	Z30	X31	Y31	Z31	X32	Y32	Z32	X33	Y33	Z33	X34	Y34	Z34	X35	Y35	Z35	X36	Y36	Z36	X37	Y37	Z37	X38	Y38	Z38	X39	Y39	Z39	X40	Y40	Z40	X41	Y41	Z41	X42	Y42	Z42	X43	Y43	Z43	X44	Y44	Z44	X45	Y45	Z45	X46	Y46	Z46	X47	Y47	Z47	X48	Y48	Z48	X49	Y49	Z49	X50	Y50	Z50	X51	Y51	Z51	X52	Y52	Z52	X53	Y53	Z53	X54	Y54	Z54	X55	Y55	Z55	X56	Y56	Z56	X57	Y57	Z57	X58	Y58	Z58	X59	Y59	Z59

516	2.58	966.37	1495.2	-133.42	899.35	1371.8	-58.64	853.45	1093.6	-43.577	866.89	1276.6	77.596	836.17	903.59	-70.037	832.78	904.42	29.834	998.49	343.04	-73.042	995.32	759.38	286.28	1022.1	26.983	-98.253	964.88	455.25	-152.25	1132.7	1451.9	-103.13	1019.1	797.48	238.54	1000	655.66	-184.3	948.28	1121.2	-290.29	962.04	1506.9	-10.618	888.94	983.79	157.19	871.56	980.07	-229.92	962.11	1161.4	189.4	925.58	898.14	256.27	1014.2	1280.5	-47.972	1061.4	563.58	154.9	967.06	1310.7	99.127	966.73	1295.4	-216.46	946.71	787.56	257.86	1101.9	682.06	150.8	950.7	768.13	-322.25	994.27	729.67	-343.67	1135.8	1461.8	-25.595	1100.7	344	73.256	922.17	883.68	-320.06	928	1024.4	237.13	1019.9	280.4	138.14	880.87	117.76	69.783	1032.2	653.47	171.72	1050.7	266.87	73.676	1071	39.041	102.47	1014.3	181.19	70.061	1031.9	71.567	75.27	1108.1	476.6	148.38	1006.6	737.66	191.18	997.92	66.813	120.55	897.93	1008.5	-299.65	982.17	252.6	-66.272	938.52	122.38	109.24	1074.8	1175.2	-46.333	1035.7	878.85	-181.19	984.59	161.78	-58.205	1022.2	767.62	-299.21	998.37	563.15	-162.06	1057.4	886.38	121.12	933.4	61.571	-96.154	998.68	746.23	-212.03	1044.3	49.019	-45.183	960	122.92	32.03	890.17	28.224	-53.808	1062	668.66	-146.35	955.94	250.26	-132.18	953.63	68.931	-19.889	1101.5	22.012	-49.72
517	2.585	971.97	1495.1	-133.63	904.58	1371.6	-58.859	857.98	1093.5	-44.113	871.84	1276.6	77.178	841.05	903.52	-69.916	837.83	904.26	30.233	999.59	342.75	-73.245	997.44	759.37	286.91	1022	26.902	-98.259	967.07	454.67	-152.4	1138.2	1451.7	-102.99	1020.9	797.03	239.31	1003.6	655.26	-184.32	953.74	1121.2	-290.83	967.31	1506.6	-10.679	892.4	984.19	156.74	877.02	979.98	-230.77	966	1161.9	190.2	928.17	898.1	255.87	1019.5	1280.2	-48.198	1068.9	563.95	153.95	972.09	1310.5	98.843	972.25	1295.3	-216.58	949.55	787.55	258.03	1108.6	683.16	149.07	957.29	768.3	-323.11	1001.1	729.98	-344.22	1141.2	1461.3	-25.511	1110.7	344.48	71.919	928.28	883.68	-320.91	931.21	1024.6	236.63	1032.4	278.44	137.05	896.92	111.52	68.626	1040	653.73	171.27	1063	266.24	72.293	1090	38.974	101.54	1028.9	179.21	69.189	1049.7	70.287	74.819	1115.7	477.22	146.74	1012.7	737.73	190.52	1015.9	64.555	120.2	903.47	1008.4	-300.34	983.43	252.32	-66.357	955.04	118.4	108.69	1079.8	1174.8	-46.205	1040.4	878.76	-181.25	985.17	161.82	-58.547	1028.7	768.13	-299.73	1001.1	562.87	-162.2	1062	886.3	120.55	933.37	61.585	-96.257	1003.3	745.86	-212.29	1044.3	49.061	-45.457	975.69	119.28	31.868	889.86	28.145	-53.743	1065.7	667.82	-146.27	956.72	250.26	-132.4	953.01	68.725	-19.093	1101.3	21.423	-50.12
518	2.59	977.52	1495	-133.68	909.97	1371.3	-59.335	862.56	1093.4	-44.636	876.56	1276.4	76.8	845.8	903.35	-69.794	843.09	903.88	30.675	1001.2	342.39	-73.399	999.07	758.89	287.15	1021.8	26.038	-98.044	968.93	454.81	-152.31	1143.6	1450.8	-102.89	1022.5	796.29	239.84	1007.1	654.82	-184.17	959.23	1121.2	-291.47	972.8	1506.3	-10.729	895.87	984.62	156.93	882.53	979.58	-231.65	970.28	1161.5	189.56	930.79	898.08	255.85	1024.7	1279.4	-48.423	1076.3	564.38	152.78	976.85	1310.3	98.757	977.96	1295.2	-217.14	951.51	787.49	258.02	1115.1	683.47	147.71	963.95	768.35	-323.76	1007.8	730.11	-344.89	1146.4	1460.8	-25.367	1120.7	344.4	70.749	934.38	883.55	-321.72	934.26	1024.6	236.48	1044.9	276.64	136.08	913.11	105.77	68.382	1047.5	653.96	170.74	1075.5	265.4	71.043	1108.6	39.076	100.83	1043.8	177.08	68.165	1067.7	68.884	73.812	1123.1	477.54	145.31	1019.1	737.51	189.89	1034	62.681	119.34	908.96	1008.3	-301.28	984.25	252.28	-66.764	971.46	115.01	108.04	1084.6	1174.6	-45.975	1045.1	878.57	-181.3	985.18	161.08	-58.355	1035.4	768.53	-300.32	1003.9	562.48	-162.27	1067	886.19	119.87	933.3	61.581	-96.361	1007.8	745.41	-212.55	1044.4	49.527	-46.137	991.76	115.85	31.213	889.68	27.985	-53.65	1069.6	666.99	-146.26	957.45	250.3	-132.52	952.79	69.278	-18.99	1100.6	21.614	-50.563
519	2.595	983.13	1494.8	-133.9	915.24	1371	-59.619	867.31	1093.3	-45.163	881.46	1276.2	76.235	850.6	903	-69.272	848.14	903.44	30.856	1002.7	342.18	-73.725	1000.9	758.55	287.46	1021.5	25.764	-98.078	971.12	454.38	-152.62	1149	1450.3	-102.7	1025	795.94	239.35	1010.8	654.47	-184.33	964.83	1121.1	-292.06	978	1506.1	-10.833	899.61	984.8	156.96	888.03	979.11	-232.57	974.02	1161.7	190.18	933.42	898.05	255.67	1029.9	1279.5	-48.329	1083.6	564.72	151.7	981.74	1309.8	98.475	983.67	1295	-217.42	953.66	787.38	257.83	1121.3	683.79	146.25	970.8	768.35	-324.36	1014.6	730.26	-345.47	1151.9	1460.6	-25.295	1130.5	344.63	69.218	940.42	883.3	-322.38	937.46	1024.5	236.36	1057.1	274.99	135.22	929.96	100.49	67.936	1053.4	653.99	169.55	1087.7	263.98	70.262	1127.4	39.332	99.898	1058.5	175.12	67.331	1085.4	67.771	73.062	1130.4	477.7	143.99	1025.6	737.41	189.21	1052.4	60.815	118.31	914.53	1008	-301.93	985	252.04	-66.97	988.44	111.07	107.86	1090	1174	-46.139	1049.8	878.2	-180.96	984.81	160.24	-58.038	1042.1	768.81	-301.02	1006.7	562.19	-162.51	1072.1	885.97	119.11	933.22	61.621	-96.438	1012.2	745.02	-212.76	1044.3	49.694	-46.394	1008.1	112.71	30.635	889.15	27.83	-53.347	1073.4	666.26	-146.18	958.26	250.23	-132.62	953.75	69.53	-19.941	1100.6	22.128	-50.645
520	2.6	988.56	1494.4	-133.98	920.58	1370.7	-59.983	872.39	1093.1	-45.744	886.55	1276	75.621	855.5	902.84	-68.863	853.26	903.15	30.99	1004.3	341.92	-73.921	1002.9	758.26	287.76	1021.4	25.788	-98.11	973.07	454.61	-152.66	1154.5	1450.4	-102.71	1027.1	795.31	240.34	1014.4	654.04	-184.39	970.33	1120.9	-292.71	983.45	1505.7	-10.995	903.22	984.82	156.63	893.57	978.78	-233.51	978.12	1161.2	189.31	936.13	897.93	255.5	1035.3	1279.3	-48.415	1090.5	564.81	150.58	986.88	1309.4	98.221	989	1294.1	-217.1	955.58	787.28	258	1127.3	683.97	144.84	977.53	768.27	-324.93	1021.5	730.52	-346.1	1157.3	1459.9	-25.415	1140.5	344.99	67.506	946.4	883.03	-323.12	940.97	1024.4	236.26	1069.3	273.32	134.33	946.32	95.177	67.956	1059.2	653.87	168.4	1099.9	263.27	68.994	1146	39.849	99.162	1073	173.72	66.491	1103.1	66.898	72.478	1137.5	477.95	142.5	1031.9	737.27	188.66	1070.5	58.856	117.39	920.08	1007.8	-302.82	985.75	251.77	-67.016	1005.3	107.83	107.52	1095.1	1173.6	-46.341	1054.5	878.03	-180.73	985.23	160.52	-58.307	1048.7	769.23	-301.68	1009.7	561.75	-162.55	1077.6	885.83	118.27	933.13	61.673	-96.531	1016.6	744.57	-212.98	1044.1	49.607	-46.457	1024.5	109.56	30.025	889.33	27.803	-53.484	1076.7	665.24	-145.7	959.01	250.06	-132.7	954.21	69.981	-20.358	1100.5	22.635	-51.085
521	2.605	994.3	1494	-134.2	926.05	1370.3	-60.065	877.53	1092.8	-46.347	891.4	1275.8	75.08	860	902.81	-68.398	858.27	902.86	31.282	1005.8	341.62	-74.117	1004.9	757.9	288.16	1021.2	25.811	-98.273	975.31	454.6	-152.84	1160	1449.6	-102.68	1029.8	794.89	241.1	1018.1	653.5	-184.41	975.86	1120.6	-293.27	988.64	1505.3	-11.205	907	984.79	156.16	898.86	978.33	-234.47	981.92	1161.1	189.93	939	897.75	255.25	1040.4	1278.8	-48.577	1097.4	564.82	149.59	991.76	1309	97.959	994.23	1293.5	-217.16	958.16	787.09	257.84	1133.7	684.36	142.95	984.24	768.27	-325.68	1028.3	730.57	-346.73	1162.6	1459.5	-25.514	1150.2	345.25	66.206	952.5	882.74	-323.94	944.32	1024.2	236.13	1081.3	271.62	133.37	963.16	89.906	67.827	1065.8	653.74	167.49	1112.2	262.49	67.568	1164.5	40.417	98.541	1087.6	171.79	65.727	1120.7	66.269	71.707	1144.4	478	141	1038.4	737.02	188.09	1088.2	56.848	117.22	925.85	1007.6	-303.62	986.92	251.59	-67.137	1021.9	104.55	106.92	1100.1	1173.1	-46.25	1058.9	877.98	-180.45	986.09	160.6	-58.672	1055.5	769.64	-302.29	1012.7	561.44	-162.77	1082.8	885.49	117.46	933.05	61.688	-96.653	1020.9	744.1	-213.17	1043.8	49.51	-46.52	1041	106.51	29.236	889.23	27.92	-53.675	1079.8	664.17	-145.27	959.91	250.06	-132.85	954.29	69.906	-20.407	1100.1	23.025	-51.458
522	2.61	999.75	1493.6	-134.26	931.28	1370	-60.485	882.7	1092.4	-46.63	896.39	1275.5	74.566	864.97	902.79	-68.327	863.6	902.08	31.713	1007.3	341.22	-74.347	1007.1	757.65	288.79	1020.7	26.012	-98.46	977.68	454.4	-153.1	1165.5	1449.5	-102.56	1032.5	794.74	240.92	1021.8	653.06	-184.62	981.2	1120.4	-293.87	993.97	1504.9	-11.172	910.84	984.67	155.81	904.49	977.72	-235.29	986.43	1160.5	189.21	941.77	897.64	255.13	1045.6	1278.3	-48.688	1104.3	564.77	148.62	996.53	1308.7	97.754	999.8	1293	-217.44	960.62	786.77	257.99	1139.8	684.01	142.06	990.83	768.22	-326.35	1035.3	730.61	-347.46	1167.8	1459	-24.948	1159.9	345.35	64.881	958.79	882.52	-324.61	947.87	1024	235.72	1093.4	270.12	132.22	980.41	84.807	67.429	1072.7	653.64	166.89	1124.2	261.19	66.634	1182.8	41.008	97.709	1102.4	170.39	64.811	1138.4	65.738	70.964	1151.4	478	139.55	1045.8	737.09	187.68	1105.9	55.136	117.01	931.41	1007.1	-304.39	988.21	251.34	-67.372	1038.4	101.09	106.45	1105.2	1172.5	-46.279	1063.8	877.94	-180.56	986.93	160.44	-59.001	1062.3	769.79	-303.06	1015.9	560.69	-162.89	1088.3	885.06	116.64	933	61.682	-96.725	1025.3	743.66	-213.3	1043.6	49.15	-46.359	1057.5	103.68	28.507	889.09	27.967	-53.733	1083.4	663.72	-145.7	961.19	249.7	-133.11	953.33	70.061	-18.887	1099.8	23.157	-51.634
